<svg xmlns="http://www.w3.org/2000/svg" xmlns:svg="http://www.w3.org/2000/svg" id="svg2" width="74.227" height="105.2" version="1.1" viewBox="0 0 74.227 105.2" xml:space="preserve"><metadata id="metadata8"/><g id="g10" transform="matrix(1.3333333,0,0,-1.3333333,0,105.2)"><g id="g12" transform="translate(72,6.9)"><g id="g14" transform="translate(-68.966,-3.866)"><g id="g16"><g id="g18"><g id="g20"><g id="g22"><g id="g24"><g id="g26"><path d="m 27.38924,73.03165 h -5.17157 c -0.13755,0 -0.24907,-0.11153 -0.24907,-0.24907 v -1.49442 c 0,-0.13754 0.11152,-0.24906 0.24907,-0.24906 h 5.17157 c 0.13754,0 0.24906,0.11152 0.24906,0.24906 v 1.49442 c 0,0.13754 -0.11152,0.24907 -0.24906,0.24907 z" style="fill:#666;fill-opacity:1;fill-rule:nonzero;stroke:none" id="path28"/></g></g><g id="g44"><path d="m 0,0.99628 v 70.29188 c 0,0.55024 0.44603,0.99628 0.99628,0.99628 h 47.61435 c 0.55023,0 0.99627,-0.44604 0.99627,-0.99628 V 0.99628 C 49.6069,0.44603 49.16086,0 48.61063,0 H 0.99628 C 0.44603,0 0,0.44603 0,0.99628 Z" style="fill:#fff;fill-opacity:1;fill-rule:nonzero;stroke:#666;stroke-width:.3985;stroke-linecap:butt;stroke-linejoin:miter;stroke-miterlimit:10;stroke-dasharray:none;stroke-opacity:1" id="path46"/></g><g id="g48"><path d="M 2.83484,11.3394 V 66.61473 H 46.77203 V 11.3394 Z" style="fill:#f0f0f0;fill-opacity:1;fill-rule:nonzero;stroke:none" id="path50"/></g><g id="g58"><g id="g60"><path d="M 8.25548,8.50455 H 3.08391 c -0.13754,0 -0.24907,-0.11153 -0.24907,-0.24907 V 3.08391 c 0,-0.13754 0.11153,-0.24907 0.24907,-0.24907 h 5.17157 c 0.13754,0 0.24907,0.11153 0.24907,0.24907 v 5.17157 c 0,0.13754 -0.11153,0.24907 -0.24907,0.24907 z" style="fill:#fff;fill-opacity:1;fill-rule:nonzero;stroke:#666;stroke-width:.29887;stroke-linecap:butt;stroke-linejoin:miter;stroke-miterlimit:10;stroke-dasharray:none;stroke-opacity:1" id="path62"/></g></g><g id="g78"><g id="g80"><path d="m 27.38924,8.50455 h -5.17157 c -0.13755,0 -0.24907,-0.11153 -0.24907,-0.24907 V 3.08391 c 0,-0.13754 0.11152,-0.24907 0.24907,-0.24907 h 5.17157 c 0.13754,0 0.24906,0.11153 0.24906,0.24907 v 5.17157 c 0,0.13754 -0.11152,0.24907 -0.24906,0.24907 z" style="fill:#fff;fill-opacity:1;fill-rule:nonzero;stroke:#666;stroke-width:.29887;stroke-linecap:butt;stroke-linejoin:miter;stroke-miterlimit:10;stroke-dasharray:none;stroke-opacity:1" id="path82"/></g></g><g id="g98"><g id="g100"><path d="m 46.52296,8.50455 h -5.17155 c -0.13754,0 -0.24907,-0.11153 -0.24907,-0.24907 V 3.08391 c 0,-0.13754 0.11153,-0.24907 0.24907,-0.24907 h 5.17155 c 0.13756,0 0.24907,0.11153 0.24907,0.24907 v 5.17157 c 0,0.13754 -0.11151,0.24907 -0.24907,0.24907 z" style="fill:#fff;fill-opacity:1;fill-rule:nonzero;stroke:#666;stroke-width:.29887;stroke-linecap:butt;stroke-linejoin:miter;stroke-miterlimit:10;stroke-dasharray:none;stroke-opacity:1" id="path102"/></g></g></g></g><g id="g118"><g id="g120"><g id="g122"><path d="m 29.05528,38.97707 c 0,2.34823 -1.90359,4.25183 -4.25184,4.25183 -2.34826,0 -4.25185,-1.9036 -4.25185,-4.25183 0,-2.34826 1.90359,-4.25185 4.25185,-4.25185 2.34825,0 4.25184,1.90359 4.25184,4.25185 z" style="fill:none;stroke:#4c4c4c;stroke-width:.59776;stroke-linecap:butt;stroke-linejoin:miter;stroke-miterlimit:10;stroke-dasharray:none;stroke-opacity:1" id="path124"/></g><g id="g126"><path d="M 24.80344,34.72522 V 28.99933" style="fill:none;stroke:#4c4c4c;stroke-width:1.59404;stroke-linecap:butt;stroke-linejoin:miter;stroke-miterlimit:10;stroke-dasharray:none;stroke-opacity:1" id="path128"/><g id="g130" transform="rotate(-90,26.901385,2.097945)"><g id="g132"><path d="M 3.04147,0 C 2.66795,0.09763 1.02614,0.65083 0,1.25287 V -1.25287 C 1.02614,-0.65083 2.66795,-0.09763 3.04147,0 Z" style="fill:#4c4c4c;fill-opacity:1;fill-rule:nonzero;stroke:#4c4c4c;stroke-width:1.24722;stroke-linecap:butt;stroke-linejoin:miter;stroke-miterlimit:10;stroke-dasharray:none;stroke-opacity:1" id="path134"/></g></g></g><g id="g136"><path d="m 24.80344,43.2289 v 5.72589" style="fill:none;stroke:#4c4c4c;stroke-width:1.59404;stroke-linecap:butt;stroke-linejoin:miter;stroke-miterlimit:10;stroke-dasharray:none;stroke-opacity:1" id="path138"/><g id="g140" transform="rotate(90,-12.075675,36.879115)"><g id="g142"><path d="M 3.04147,0 C 2.66795,0.09763 1.02614,0.65083 0,1.25287 V -1.25287 C 1.02614,-0.65083 2.66795,-0.09763 3.04147,0 Z" style="fill:#4c4c4c;fill-opacity:1;fill-rule:nonzero;stroke:#4c4c4c;stroke-width:1.24722;stroke-linecap:butt;stroke-linejoin:miter;stroke-miterlimit:10;stroke-dasharray:none;stroke-opacity:1" id="path144"/></g></g></g></g></g></g></g></g></g></g></svg>